<?xml version="1.0" encoding="utf-8"?>
<!-- Generator: Adobe Illustrator 26.0.1, SVG Export Plug-In . SVG Version: 6.00 Build 0)  -->
<svg version="1.1" id="Layer_1" xmlns="http://www.w3.org/2000/svg" xmlns:xlink="http://www.w3.org/1999/xlink" x="0px" y="0px"
	 viewBox="0 0 1000 1000" style="enable-background:new 0 0 1000 1000;" xml:space="preserve">
<style type="text/css">
	.st0{fill:none;stroke:#000000;stroke-width:40;stroke-miterlimit:10;}
	.st1{fill:#AACEED;}
	.st2{enable-background:new    ;}
</style>
<polygon class="st0" points="498.6,950.5 307.1,499.1 498.6,49.3 695.2,498.8 "/>
<polygon class="st1" points="498.6,100.7 328.5,499.9 673.7,499.9 "/>
<circle class="st0" cx="501.6" cy="493.3" r="52"/>
<g>
	<g class="st2">
		<path d="M268.7,175.9V47h34.4l27.1,47.3c7.8,13.5,15.5,29.6,21.3,44.2l0.5-0.1c-1.8-17-2.4-34.4-2.4-53.8V47h27.1v128.9h-30.9
			l-28-49.6c-7.8-13.9-16.4-30.4-22.7-45.5l-0.6,0.1c0.9,17.1,1.3,35.3,1.3,56.4v38.7H268.7z"/>
	</g>
</g>
</svg>
