<?xml version="1.0" encoding="utf-8"?>
<!-- Generator: Adobe Illustrator 26.0.1, SVG Export Plug-In . SVG Version: 6.00 Build 0)  -->
<svg version="1.1" id="Layer_1" xmlns="http://www.w3.org/2000/svg" xmlns:xlink="http://www.w3.org/1999/xlink" x="0px" y="0px"
	 viewBox="0 0 1000 1000" style="enable-background:new 0 0 1000 1000;" xml:space="preserve">
<style type="text/css">
	.st0{fill:none;stroke:#000000;stroke-width:20;stroke-miterlimit:10;}
	.st1{fill:#07A24A;stroke:#000000;stroke-width:20;stroke-miterlimit:10;}
</style>
<circle class="st0" cx="500" cy="354" r="52.1"/>
<g>
	<circle class="st0" cx="500" cy="89.8" r="25"/>
	<line class="st0" x1="500" y1="243.5" x2="500" y2="167"/>
</g>
<line class="st0" x1="502" y1="914.9" x2="502" y2="636.4"/>
<g>
	<circle class="st0" cx="647.2" cy="131" r="25"/>
	<line class="st0" x1="570.4" y1="264.1" x2="608.7" y2="197.8"/>
</g>
<g>
	<circle class="st0" cx="372.9" cy="580.9" r="25"/>
	<line class="st0" x1="449.7" y1="447.8" x2="411.5" y2="514.1"/>
</g>
<g>
	<circle class="st0" cx="233.1" cy="363.7" r="25"/>
	<line class="st0" x1="386.8" y1="363.7" x2="310.3" y2="363.7"/>
</g>
<g>
	<circle class="st0" cx="260.1" cy="235.1" r="25"/>
	<line class="st0" x1="393.2" y1="311.9" x2="327" y2="273.7"/>
</g>
<g>
	<circle class="st0" cx="351" cy="133" r="25"/>
	<line class="st0" x1="427.8" y1="266.1" x2="389.5" y2="199.8"/>
</g>
<g>
	<circle class="st0" cx="500" cy="612.4" r="25"/>
	<line class="st0" x1="500" y1="458.7" x2="500" y2="535.2"/>
</g>
<g>
	<circle class="st0" cx="629.3" cy="573.6" r="25"/>
	<line class="st0" x1="552.4" y1="440.5" x2="590.7" y2="506.7"/>
</g>
<g>
	<circle class="st0" cx="766.9" cy="374.3" r="25"/>
	<line class="st0" x1="613.2" y1="374.3" x2="689.7" y2="374.3"/>
</g>
<g>
	<circle class="st0" cx="735.6" cy="231.8" r="25"/>
	<line class="st0" x1="602.5" y1="308.7" x2="668.8" y2="270.4"/>
</g>
<g>
	<circle class="st0" cx="280.4" cy="483.8" r="25"/>
	<line class="st0" x1="413.4" y1="407" x2="347.2" y2="445.2"/>
</g>
<g>
	<circle class="st0" cx="722.8" cy="494.1" r="25"/>
	<line class="st0" x1="589.7" y1="417.3" x2="656" y2="455.5"/>
</g>
<g>
	<path class="st1" d="M479.1,911.3c6.9-2.9,10.6-0.5,15.4,1.3c45.6,17.8-15.8-63.7-33.3-201.5c-3.7-28.9-11.7,105.6-38,99.9
		c-27.8-6-59.8-130-90.6-136.7c-19-4.2,26.3,70.3-12.8,84.6c-54,19.7-168.5-61.5-172.5-53.8c-4.6,8.7,84.3,46.1,85,97.9
		c0.6,38.6-48.1,63.9-41.6,74.6c10.4,17.2,176.7-51.7,209.5-19.1c26.3,26.2-60.2,94.2-47.1,110.6C372.9,994.1,424.5,934,479.1,911.3
		z"/>
	<path class="st1" d="M547.8,909.4c-6.9-2.9-10.6-0.5-15.4,1.3c-45.6,17.8,15.8-63.7,33.3-201.5c3.7-28.9,11.7,105.6,38,99.9
		c27.8-6,59.8-130,90.6-136.7c19-4.2-26.3,70.3,12.8,84.6c54,19.7,168.5-61.5,172.5-53.8c4.6,8.7-84.3,46.1-85,97.9
		c-0.6,38.6,48.1,63.9,41.6,74.6c-10.4,17.2-176.7-51.7-209.5-19.1c-26.3,26.2,60.2,94.2,47.1,110.6
		C654,992.3,602.3,932.2,547.8,909.4z"/>
</g>
</svg>
